<svg width="44" height="44" xmlns="http://www.w3.org/2000/svg"><g fill="none" fill-rule="evenodd"><circle fill="#000" cx="22" cy="22" r="22"/><path d="M26.902 15.576h1.245v7.515h-1.246v-7.515h.001zM24.41 23.09h1.246v-7.515H24.41v7.515zm4.983 2.05h1.245v-9.565h-1.245v9.565zm-7.473 0h1.245v-9.565H21.92v9.565zm10.755 1.675h-2.603c-.358-1.397-1.508-2.374-2.836-2.374-1.316 0-2.48.977-2.836 2.374h-4.535V13.708h12.809v13.108zm-5.44 2.932c-1.042 0-1.89-.932-1.89-2.075 0-1.142.85-2.075 1.89-2.075 1.042 0 1.89.933 1.89 2.075 0 1.143-.848 2.075-1.89 2.075zM18.7 26.816h-.726c-.357-1.397-1.507-2.374-2.837-2.374-1.328 0-2.48.977-2.835 2.374H11.22v-4.915l3.768-4.81h3.725v9.725H18.7zm-3.563 2.887c-1.012 0-1.85-.917-1.85-2.03 0-1.127.823-2.03 1.85-2.03 1.028 0 1.85.918 1.85 2.03 0 1.128-.835 2.03-1.85 2.03zm3.576-17.182v3.172h-4.466L10 21.3v7.23h2.288c.357 1.412 1.507 2.39 2.836 2.39s2.48-.978 2.836-2.391h6.44c.356 1.413 1.52 2.39 2.836 2.39 1.328 0 2.48-.977 2.836-2.374h3.753V12.52H18.713z" fill="#FFF"/><path d="M13.845 17.606c-.12 0-.363.116-.484.232l-2.54 3.012c-.12.116-.12.232-.12.348v.579c0 .116.242.463.604.463h4.354c1.33 0 2.42-1.042 2.42-2.317 0-1.274-1.09-2.317-2.54-2.317h-1.694zm.242 1.043h1.451c.726 0 1.33.58 1.33 1.158 0 .58-.604 1.159-1.209 1.159h-3.628l2.056-2.317z" fill="#FFF"/></g></svg>