<svg width="44" height="44" xmlns="http://www.w3.org/2000/svg"><g fill="none" fill-rule="evenodd"><circle fill="#000" cx="22" cy="22" r="22"/><path d="M10 10.452h23.8V32.89H10z"/><path d="M33.522 18.475l-11.026-7.734a1.192 1.192 0 00-.273-.195c-.314-.196-.782-.077-1.017.273l-10.91 7.656c-.35.236-.39.743-.116 1.134.273.39.782.507 1.094.274l.743-.548v12.696c0 .469.392.86.86.86a.867.867 0 00.86-.86V18.163l8.172-5.742 8.29 5.82v13.79c0 .469.39.86.86.86a.867.867 0 00.86-.86V19.49l.587.392c.352.233.82.115 1.094-.274.314-.39.236-.9-.078-1.134" fill="#FFF"/><path d="M16.498 30.293c0 .185.173.37.436.37h9.236c.241-.002.436-.167.436-.37v-.704c0-.204-.195-.369-.436-.37h-9.236c-.242.001-.436.166-.436.37v.704zm.436-8.294h9.236c.241-.001.436-.167.436-.37v-.704c0-.203-.195-.369-.436-.37h-9.236c-.242.001-.436.167-.436.37v.704c0 .185.173.37.436.37zm-.436 5.406c0 .185.173.37.436.37h9.236c.241-.002.436-.167.436-.37V26.7c0-.203-.195-.369-.436-.37h-9.236c-.242.001-.436.167-.436.37v.704zm0-2.889c0 .186.173.37.436.37h9.236c.241 0 .436-.166.436-.37v-.703c0-.203-.195-.369-.436-.37h-9.236c-.242.001-.436.167-.436.37v.703z" fill="#FFF"/></g></svg>