<svg width="44" height="44" xmlns="http://www.w3.org/2000/svg"><g fill="none" fill-rule="evenodd"><circle fill="#000" cx="22" cy="22" r="22"/><g fill="#FFF" fill-rule="nonzero"><path d="M18.974 20.897h-6.019c-.516 0-.86.344-.86.86 0 .515.344.86.86.86h6.019c.515 0 .86-.345.86-.86 0-.516-.43-.86-.86-.86zm0 4.299h-6.019c-.516 0-.86.344-.86.86 0 .515.344.86.86.86h6.019c.515 0 .86-.345.86-.86 0-.516-.43-.86-.86-.86zm11.176.823h-.515v-1.72c0-.516-.344-.86-.86-.86s-.86.344-.86.86v2.58c0 .515.086.86.516.86h1.72c.516 0 .86-.345.86-.86 0-.517-.344-.86-.86-.86z"/><path d="M21.897 30.354h-9.63c-.86 0-1.547-.343-1.547-1.117v-11.78h18.915v1.032c0 .516.344.86.86.86s.86-.344.86-.86v-4.814c0-1.032-.774-2.236-1.806-2.236H10.806C9.774 11.44 9 12.643 9 13.675v17.023c0 .946.774 1.376 1.806 1.376h11.091c.516 0 .86-.344.86-.86s-.344-.86-.86-.86zM10.72 15.05c0-.86.687-1.891 1.547-1.891h15.82c.86 0 1.548 1.031 1.548 1.891v.688H10.72v-.688z"/><path d="M28.431 20c-3.525 0-6.448 2.923-6.448 6.448 0 3.526 2.923 6.449 6.448 6.449 3.525 0 6.449-2.923 6.449-6.449A6.44 6.44 0 0028.43 20zm0 11.177c-2.58 0-4.729-2.15-4.729-4.729s2.15-4.728 4.73-4.728c2.579 0 4.728 2.149 4.728 4.728a4.715 4.715 0 01-4.729 4.73z"/></g></g></svg>